<svg id="Camada_1" data-name="Camada 1" xmlns="http://www.w3.org/2000/svg" viewBox="0 0 480.29 178.97"><defs><style>.cls-1{stroke:#211915;stroke-miterlimit:10;stroke-width:1.5px;}</style></defs><title>mm_logo_black</title><path d="M490.27,347H456.51V272.55h-.35l-6.75,14.72L413,348.75h-.52l-36.37-61.48-6.75-14.72h-.35V347H335.29V206.57H363l44.16,74.64,5.37,12.3h.35l5-12.3,44.33-74.64h28.05Z" transform="translate(-178.89 -204.87)"/><path d="M659.12,347H625.35V272.55H625l-6.75,14.72-36.37,61.48h-.52L545,287.27l-6.75-14.72h-.35V347H504.13V206.57h27.71L576,281.21l5.37,12.3h.35l5-12.3,44.33-74.64h28.05Z" transform="translate(-178.89 -204.87)"/><path d="M344.5,368.07h-4.34l.07.15v10.44h-1.4V368.22l.07-.15h-4.34v-1.32h9.93Z" transform="translate(-178.89 -204.87)"/><path d="M357.88,378.66h-8.75V366.75h8.75v1.32h-7.5l.15.15v3.68l-.15.15h6.8v1.32h-6.8l.15.15v3.68l-.15.15h7.5Z" transform="translate(-178.89 -204.87)"/><path d="M372,369.44a3.94,3.94,0,0,0-3.38-1.52c-3.12,0-4.41,2.19-4.41,4.85s1.24,4.71,4.4,4.71A3.93,3.93,0,0,0,372,376l1,1a5.6,5.6,0,0,1-4.44,1.82c-3.84,0-5.82-2.41-5.82-6s2.07-6.18,5.84-6.18a5.56,5.56,0,0,1,4.46,1.82Z" transform="translate(-178.89 -204.87)"/><path d="M387.58,378.66H386.3l-6.16-8.18-.91-1.4h0v9.58h-1.4V366.75h1.28l6.21,8.24.87,1.34h0v-9.58h1.4Z" transform="translate(-178.89 -204.87)"/><path d="M398.3,378.81c-3.66,0-5.57-2.41-5.57-6s1.93-6.18,5.57-6.18,5.59,2.54,5.59,6.18S401.92,378.81,398.3,378.81Zm0-10.89c-3,0-4.15,2.19-4.15,4.85s1.19,4.71,4.15,4.71,4.13-2.09,4.13-4.71S401.3,367.92,398.31,367.92Z" transform="translate(-178.89 -204.87)"/><path d="M417.09,378.66H409V366.75h1.4v10.43l-.15.16h6.81Z" transform="translate(-178.89 -204.87)"/><path d="M426.7,378.81c-3.66,0-5.57-2.41-5.57-6s1.93-6.18,5.57-6.18,5.59,2.54,5.59,6.18S430.32,378.81,426.7,378.81Zm0-10.89c-3,0-4.15,2.19-4.15,4.85s1.19,4.71,4.15,4.71,4.13-2.09,4.13-4.71S429.71,367.92,426.72,367.92Z" transform="translate(-178.89 -204.87)"/><path d="M447.8,378.66H446.6v-1.75h0a4.65,4.65,0,0,1-3.85,1.9c-3.71,0-5.8-2.29-5.8-6s2.16-6.22,5.88-6.22a5.87,5.87,0,0,1,4.6,1.79l-1.06,1a4.26,4.26,0,0,0-3.53-1.49c-3,0-4.46,1.9-4.46,4.9s1.38,4.66,4.37,4.66a3.75,3.75,0,0,0,3.84-4l.15-.15h-4V372h5.13Z" transform="translate(-178.89 -204.87)"/><path d="M454.93,378.66h-1.4V366.75h1.4Z" transform="translate(-178.89 -204.87)"/><path d="M471.52,378.66H470l-1.26-2.87.07-.15h-6.52l.07.15-1.27,2.87h-1.53l5.24-11.92h1.49Zm-3.35-4.34-.15-.15-2.1-4.78-.35-1.19h0l-.37,1.19-2.1,4.78-.15.15Z" transform="translate(-178.89 -204.87)"/><path d="M488.22,378.66h-4.57V366.75h4.5c4.66,0,5.47,3.12,5.47,6S492.82,378.66,488.22,378.66ZM488,368.07h-3.1l.15.15v9l-.15.15h3.18c3.54,0,4.1-2.18,4.1-4.63S491.59,368.07,488,368.07Z" transform="translate(-178.89 -204.87)"/><path d="M507.51,378.66h-8.75V366.75h8.75v1.32H500l.15.15v3.68L500,372h6.8v1.32H500l.15.15v3.68l-.15.15h7.5Z" transform="translate(-178.89 -204.87)"/><path d="M521.92,378.66h-1.4V366.75h1.4Z" transform="translate(-178.89 -204.87)"/><path d="M537.43,378.66h-1.28L530,370.48l-.91-1.4h0v9.58h-1.4V366.75h1.28l6.21,8.24.87,1.34h0v-9.58h1.4Z" transform="translate(-178.89 -204.87)"/><path d="M551.55,368.07h-7.21l.15.15v4l-.15.15h6.5v1.32h-6.5l.15.15v4.85h-1.4V366.75h8.46Z" transform="translate(-178.89 -204.87)"/><path d="M561.38,378.81c-3.66,0-5.58-2.41-5.58-6s1.93-6.18,5.58-6.18,5.59,2.54,5.59,6.18S565,378.81,561.38,378.81Zm0-10.89c-3,0-4.15,2.19-4.15,4.85s1.19,4.71,4.15,4.71,4.13-2.09,4.13-4.71S564.38,367.92,561.39,367.92Z" transform="translate(-178.89 -204.87)"/><path d="M582.29,378.66h-1.57l-1.49-3.13a3,3,0,0,0-3-1.78h-2.82l.15.15v4.77h-1.4V366.75h5.22c2.18,0,4,1.16,4,3.52a3.14,3.14,0,0,1-2.38,3.06v0a3.2,3.2,0,0,1,1.56,1.59Zm-5-10.59h-4l.15.15v4.06l-.15.15h3.81c1.72,0,2.72-.9,2.72-2.16C579.89,368.68,578.79,368.07,577.33,368.07Z" transform="translate(-178.89 -204.87)"/><path d="M598.39,378.66H597V369.9h0l-.79,1.9-3.62,7h0l-3.66-7.12-.74-1.81h0v8.77h-1.4V366.75h1.25l4,7.94.59,1.4h0l.59-1.4,4-7.94h1.25Z" transform="translate(-178.89 -204.87)"/><path d="M614.9,378.66h-1.53l-1.26-2.87.07-.15h-6.52l.07.15-1.27,2.87h-1.53l5.24-11.92h1.49Zm-3.35-4.34-.15-.15-2.1-4.78-.35-1.19h0l-.37,1.19-2.1,4.78-.15.15Z" transform="translate(-178.89 -204.87)"/><path d="M627.73,369.44a3.94,3.94,0,0,0-3.38-1.52c-3.12,0-4.41,2.19-4.41,4.85s1.24,4.71,4.4,4.71a3.93,3.93,0,0,0,3.38-1.5l1,1a5.41,5.41,0,0,1-3.94,1.81l.19.18a.82.82,0,0,1,0,1.29l-1.28,1.28-.71-.71.91-.91c.46-.46.46-.63.22-.87l-.26-.26c-3.54-.18-5.38-2.54-5.38-6s2.07-6.18,5.84-6.18a5.56,5.56,0,0,1,4.46,1.82Z" transform="translate(-178.89 -204.87)"/><path d="M644.42,378.66h-1.53l-1.26-2.87.07-.15h-6.52l.07.15L634,378.66h-1.53l5.24-11.92h1.49Zm-2.52-14.44a2.28,2.28,0,0,1-2.1,1.57c-1,0-1.94-1.1-2.85-1.1a1.36,1.36,0,0,0-1.24,1.1l-.71-.69a2.3,2.3,0,0,1,2.07-1.57c1,0,2,1.1,2.85,1.1a1.37,1.37,0,0,0,1.26-1.1Zm-.84,10.11-.15-.15-2.1-4.78-.35-1.19h0l-.37,1.19-2.1,4.78-.15.15Z" transform="translate(-178.89 -204.87)"/><path d="M653.59,378.81c-3.66,0-5.58-2.41-5.58-6s1.93-6.18,5.58-6.18,5.59,2.54,5.59,6.18S657.21,378.81,653.59,378.81Zm0-10.89c-3,0-4.15,2.19-4.15,4.85s1.19,4.71,4.15,4.71,4.13-2.09,4.13-4.71S656.59,367.92,653.61,367.92Z" transform="translate(-178.89 -204.87)"/><path d="M234.41,276.18c-2.2,0-4,1.51-4,3.38l-41.55,11.85a3.92,3.92,0,0,0-2.82-1.15,3.16,3.16,0,1,0,0,6.23,4,4,0,0,0,2.52-.86l42,12.21a3.94,3.94,0,0,0,3.85,2.5,3.87,3.87,0,0,0,3.94-2.82L279.8,295.7a4,4,0,0,0,2.43.79,3.16,3.16,0,1,0,0-6.23,3.89,3.89,0,0,0-2.94,1.26l-40.88-11.88s0,0,0-.06C238.41,277.71,236.62,276.18,234.41,276.18Zm44.15,17.25a2.66,2.66,0,0,0,.06.48L238,305.5a4.09,4.09,0,0,0-3.61-2,4,4,0,0,0-3.74,2.21l-41-11.92a2.64,2.64,0,0,0,.05-.45s0-.06,0-.09l41.4-11.81a4.42,4.42,0,0,0,6.58.07Z" transform="translate(-178.89 -204.87)"/><path d="M183.44,241.51v39.36h.06l5.12-1.93V241.51a5.71,5.71,0,0,0,4.06-5.2,4.84,4.84,0,0,0-.15-1.2l37.16-21a6,6,0,0,0,2.36,1.54V262.6l2.35-.89h0l2.35.89V215.66a5.94,5.94,0,0,0,2.56-1.77l36.78,20.78a4.52,4.52,0,0,0-.31,1.64,5.22,5.22,0,0,0,3.36,4.66v37.58l5.18,2V241.17a5.33,5.33,0,0,0,3.83-4.85c0-2.9-2.77-5.25-6.19-5.25a7,7,0,0,0-3.4.87l-38.22-21.59c-.37-2.52-2.89-4.47-6-4.47s-5.83,2.14-6,4.83l-37.93,21.43a7.31,7.31,0,0,0-4.45-1.46c-3.67,0-6.65,2.53-6.65,5.64A5.71,5.71,0,0,0,183.44,241.51Z" transform="translate(-178.89 -204.87)"/><path d="M284.12,346.83V308l-5.18,2v36.85a5.71,5.71,0,0,0-4.06,5.2,4.88,4.88,0,0,0,.47,2.07l-36,20.35a5.94,5.94,0,0,0-2.56-1.77V325.85l-2.35.89h0l-2.35-.89v46.82a6,6,0,0,0-2.36,1.54l-38-21.47a4.49,4.49,0,0,0,.07-.73,5.22,5.22,0,0,0-3.36-4.66V309.42l-5.18-2v39.7a5.33,5.33,0,0,0-3.83,4.85c0,2.9,2.77,5.25,6.19,5.25a6.78,6.78,0,0,0,4.25-1.44l38.6,21.81c.17,2.69,2.78,4.83,6,4.83s5.59-2,6-4.47l37.57-21.23a7.49,7.49,0,0,0,3.58.89c3.67,0,6.65-2.53,6.65-5.64A5.71,5.71,0,0,0,284.12,346.83Z" transform="translate(-178.89 -204.87)"/><line class="cls-1" x1="54.49" y1="102.07" x2="101.09" y2="148.97"/><line class="cls-1" x1="10.66" y1="146.67" x2="55.52" y2="74.71"/><line class="cls-1" x1="6.25" y1="88.17" x2="54.02" y2="6.41"/><line class="cls-1" x1="98.59" y1="30.58" x2="54.71" y2="101.35"/><line class="cls-1" x1="56.15" y1="174.37" x2="104.23" y2="89.46"/><line class="cls-1" x1="11.31" y1="32.69" x2="55.85" y2="73.61"/><circle cx="55.52" cy="172.71" r="6.26"/><circle cx="55.48" cy="6.26" r="6.26"/><circle cx="55.48" cy="74.78" r="4.21"/><circle cx="55.48" cy="102.16" r="4.21"/><circle cx="102.63" cy="147.35" r="6.91"/><circle cx="6.91" cy="147.35" r="6.91"/><circle cx="102.63" cy="31.18" r="6.91"/><circle cx="6.91" cy="31.18" r="6.91"/><circle cx="7.14" cy="88.51" r="4.21"/><circle cx="103.33" cy="88.51" r="4.21"/></svg>